# xmcd
#
# Track frame offsets:
#	150
#	14000
#	29545
#	42107
#	56677
#	68507
#	84175
#	99137
#	113450
#	125230
#	138315
#	154342
#
# Disc length: 2282 seconds
#
# Revision: 0
# Processed by: cddbd v1.5.2PL0 Copyright (c) Steve Scherf et al.
# Submitted via: dBpowerAMP V4.0
#
DISCID=9508e80c
DTITLE=Johanna virtanen - Rakkauden pallomeri
DYEAR=1993
DGENRE=Finnish
TTITLE0=Rakkauiden pallomeri
TTITLE1=Rakastan vain kahta
TTITLE2=Pokafrendi
TTITLE3=Lapsi kahden maan
TTITLE4=Pojat
TTITLE5=Tangon tein
TTITLE6=Oi Toni, Toni
TTITLE7=Heikki Breikki
TTITLE8=Arvaas kuka
TTITLE9=Se tuntui varpaissa asti
TTITLE10=Pikku pikku bikinissä
TTITLE11=Pieni unelma
EXTD=miucis
EXTT0=
EXTT1=
EXTT2=
EXTT3=
EXTT4=
EXTT5=
EXTT6=
EXTT7=
EXTT8=
EXTT9=
EXTT10=
EXTT11=
PLAYORDER=
